<svg class="icon" viewBox="0 0 1024 1024" xmlns="http://www.w3.org/2000/svg" width="128" height="128"><defs><style/></defs><path d="M902.4 800v-86.4H1024V800H902.4zm-83.2-204.8v-86.4H1024v86.4H819.2zM736 390.4V304h288v86.4H736zM96 1008l-96-3.2c0-16 9.6-166.4 67.2-240 67.2-86.4 198.4-131.2 390.4-131.2 172.8 0 288 38.4 368 124.8 70.4 73.6 76.8 227.2 76.8 243.2l-96 3.2c-3.2-51.2-16-144-51.2-182.4-44.8-48-112-96-297.6-96-156.8 0-265.6 32-313.6 96C108.8 864 96 972.8 96 1008zm355.2-432C323.2 576 208 435.2 208 275.2 208 147.2 291.2 16 451.2 16c166.4 0 243.2 131.2 243.2 259.2-3.2 160-115.2 300.8-243.2 300.8zm0-464C336 112 304 214.4 304 275.2 304 380.8 374.4 480 451.2 480s147.2-96 147.2-204.8c0-38.4-12.8-163.2-147.2-163.2z"/></svg>