<svg class="icon" viewBox="0 0 1024 1024" xmlns="http://www.w3.org/2000/svg" width="128" height="128"><defs><style/></defs><path d="M375.467 409.6v273.067c0 40.96 27.306 68.266 68.266 68.266h136.534c40.96 0 68.266-27.306 68.266-68.266V409.6H839.68c6.827 0 20.48-6.827 27.307-6.827 13.653-13.653 13.653-34.133 0-47.786l-327.68-327.68c-13.654-13.654-34.134-13.654-47.787 0L163.84 348.16c-6.827 6.827-13.653 20.48-13.653 27.307 0 20.48 13.653 34.133 34.133 34.133h191.147zM409.6 887.467h204.8c20.48 0 34.133-13.654 34.133-34.134S634.88 819.2 614.4 819.2H409.6c-20.48 0-34.133 13.653-34.133 34.133s13.653 34.134 34.133 34.134zm0 136.533h204.8c20.48 0 34.133-13.653 34.133-34.133s-13.653-34.134-34.133-34.134H409.6c-20.48 0-34.133 13.654-34.133 34.134S389.12 1024 409.6 1024z"/></svg>