<svg class="icon" viewBox="0 0 1024 1024" xmlns="http://www.w3.org/2000/svg" width="128" height="128"><defs><style/></defs><path d="M893.325 18.673H127.532c-22.817 0-41.314 18.497-41.314 41.314v902.277c0 22.817 18.497 41.314 41.314 41.314h765.792c22.817 0 41.314-18.497 41.314-41.314V59.987c.001-22.817-18.496-41.314-41.313-41.314zm-14.46 889.612c0 20.115-16.065 36.421-35.883 36.421H177.875c-19.817 0-35.882-16.306-35.882-36.421V112.888c0-20.114 16.065-36.42 35.882-36.42h665.107c19.817 0 35.883 16.306 35.883 36.42v795.397z"/><path d="M236.206 229.529a36.15 36.15 0 1 0 72.3 0 36.15 36.15 0 1 0-72.3 0zm508.852-36.15H411.1c-21.867 0-39.593 16.185-39.593 36.15s17.726 36.15 39.593 36.15h333.958c21.867 0 39.593-16.185 39.593-36.15s-17.726-36.15-39.593-36.15zM236.206 417.26a36.15 36.15 0 1 0 72.3 0 36.15 36.15 0 1 0-72.3 0zm508.852-36.15H411.1c-21.867 0-39.593 16.185-39.593 36.15s17.726 36.15 39.593 36.15h333.958c21.867 0 39.593-16.185 39.593-36.15s-17.726-36.15-39.593-36.15zM236.206 604.991a36.15 36.15 0 1 0 72.3 0 36.15 36.15 0 1 0-72.3 0zm508.852-36.15H411.1c-21.867 0-39.593 16.185-39.593 36.15s17.726 36.15 39.593 36.15h333.958c21.867 0 39.593-16.185 39.593-36.15s-17.726-36.15-39.593-36.15zM236.206 792.722a36.15 36.15 0 1 0 72.3 0 36.15 36.15 0 1 0-72.3 0zm508.852-36.15H411.1c-21.867 0-39.593 16.185-39.593 36.15s17.726 36.15 39.593 36.15h333.958c21.867 0 39.593-16.185 39.593-36.15s-17.726-36.15-39.593-36.15z"/></svg>