<svg class="icon" viewBox="0 0 1024 1024" xmlns="http://www.w3.org/2000/svg" width="128" height="128"><defs><style/></defs><path d="M793.354 961.862c-73.696 0-133.996-57.843-133.996-128.527 0-59.539 42.957-109.523 100.488-123.958V94.297c0-19.282 13.396-32.159 33.508-32.159 20.077 0 33.473 12.877 33.473 32.158v615.08c57.53 14.436 100.488 64.42 100.488 123.959 0 70.684-60.265 128.527-133.961 128.527zm0-192.808c-40.189 0-66.98 25.72-66.98 64.28 0 38.562 26.791 64.247 66.98 64.247s66.98-25.685 66.98-64.246-26.792-64.281-66.98-64.281zM558.869 603.8v325.938c0 19.281-13.396 32.124-33.507 32.124-20.077 0-33.474-12.843-33.474-32.124V603.8C434.358 589.4 391.4 539.415 391.4 479.877c0-59.815 43.338-110.042 101.285-124.165-.208-1.524-.797-2.77-.797-4.362V94.296c0-19.28 13.397-32.158 33.474-32.158 20.111 0 33.507 12.877 33.507 32.158V351.35c0 1.592-.623 2.838-.796 4.362 57.946 14.157 101.285 64.35 101.285 124.165 0 59.538-42.958 109.488-100.489 123.923zm-33.507-188.17c-40.189 0-66.981 25.685-66.981 64.247s26.792 64.246 66.98 64.246 66.981-25.685 66.981-64.246-26.792-64.246-66.98-64.246zM264.119 314.624v615.115c0 19.281-13.43 32.124-33.507 32.124-20.112 0-33.508-12.843-33.508-32.124V314.623C139.608 300.188 96.65 250.203 96.65 190.7c0-70.72 60.265-128.562 133.962-128.562 73.661 0 133.996 57.843 133.996 128.562 0 59.504-42.993 109.488-100.489 123.923zM230.612 126.42c-40.224 0-67.016 25.685-67.016 64.281 0 38.562 26.792 64.246 67.016 64.246 40.188 0 66.98-25.684 66.98-64.246 0-38.596-26.792-64.28-66.98-64.28z"/></svg>