<svg class="icon" viewBox="0 0 1024 1024" xmlns="http://www.w3.org/2000/svg" width="128" height="128"><defs><style/></defs><path d="M907.272 0H116.728A116.728 116.728 0 0 0 0 116.728v790.544A116.728 116.728 0 0 0 116.728 1024h790.544A116.728 116.728 0 0 0 1024 907.272V116.728A116.728 116.728 0 0 0 907.272 0zM253.009 236.667H770.99a32.976 32.976 0 1 1 0 65.66H253.01a32.976 32.976 0 0 1 0-65.66zm194.644 603.778H250.091a29.182 29.182 0 0 1 0-59.824h197.562zm0-181.805H250.091a29.182 29.182 0 0 1 0-59.823h197.562zm0-181.513H250.091a29.182 29.182 0 0 1 0-59.823h197.562zm342.89 374.699a24.805 24.805 0 0 1-10.214 2.334 23.638 23.638 0 0 1-21.302-13.424l-34.144-70.328 42.606-20.72 34.143 70.62a23.346 23.346 0 0 1-11.089 31.518zM648.135 736.848A156.708 156.708 0 1 1 804.55 580.14a156.708 156.708 0 0 1-156.416 156.708zm0-272.269a116.728 116.728 0 1 0 116.728 116.728A116.728 116.728 0 0 0 648.135 464.58z"/></svg>