<svg class="icon" viewBox="0 0 1024 1024" xmlns="http://www.w3.org/2000/svg" width="128" height="128"><defs><style/></defs><path d="M.1 0h1024v1023.8H.1z"/><path d="M512.1 1012.1c-67.5 0-133-13.2-194.7-39.3-59.6-25.2-113.1-61.3-159-107.2-45.9-45.9-82-99.4-107.2-159C25.1 645 11.9 579.4 11.9 511.9s13.2-133 39.3-194.7c25.2-59.6 61.3-113.1 107.2-159s99.4-82 159-107.2c61.7-26.1 127.2-39.3 194.7-39.3s133 13.2 194.7 39.3c59.6 25.2 113.1 61.3 159 107.2 45.9 45.9 82 99.4 107.2 159 26.1 61.7 39.3 127.2 39.3 194.7S999.1 645 973 706.6c-25.2 59.6-61.3 113.1-107.2 159-45.9 45.9-99.4 82-159 107.2-61.6 26.1-127.2 39.3-194.7 39.3zm0-956.1c-61.5 0-121.3 12-177.5 35.8-54.3 23-103.1 55.8-144.9 97.7S114.9 280.2 92 334.4c-23.8 56.2-35.8 115.9-35.8 177.5 0 61.6 12.1 121.3 35.8 177.5 23 54.3 55.8 103.1 97.7 144.9s90.6 74.8 144.9 97.7c56.2 23.8 115.9 35.8 177.5 35.8s121.3-12.1 177.5-35.8c54.3-23 103.1-55.8 144.9-97.7 41.9-41.9 74.8-90.6 97.7-144.9C956 633.2 968 573.5 968 511.9c0-61.6-12.1-121.3-35.8-177.5-23-54.3-55.8-103.1-97.7-144.9-41.9-41.9-90.6-74.8-144.9-97.7C633.4 68 573.7 56 512.1 56z"/><path d="M481.3 192.1c-161.9 16-288.5 152.3-288.5 319 0 48.1 11.2 93 28.9 133L481.4 495V192.1zm-226 508.2c57.7 80.1 152.3 131.4 258.1 131.4 105.8 0 200.4-51.3 258.1-131.4L513.4 551.2 255.3 700.3zm330.2-453.7c22.4-12.8 17.6-44.9-6.4-49.7l-28.9-4.8h-4.8v32.1c0 19.2 22.5 32.1 40.1 22.4zm0 129.9l125-72.1c16-9.6 17.6-32.1 3.2-43.3-3.2-3.2-8-6.4-11.2-8-8-6.4-19.2-6.4-28.9-1.6l-115.4 67.3c-8 4.8-12.8 12.8-12.8 22.4V354c0 20.9 22.5 33.7 40.1 22.5zm-27.3 126.6l4.8 3.2c8 4.8 17.6 4.8 25.6 0l195.6-112.2c12.8-6.4 17.6-22.4 9.6-35.3-1.6-3.2-4.8-8-6.4-11.2-8-12.8-24-16-35.3-9.6l-194 112.2c-8 4.8-12.8 12.8-12.8 22.4v8c.1 8.1 4.9 17.7 12.9 22.5zm219.6 80.2c-17.6 9.6-17.6 35.3 0 44.9l24 14.4 1.6 1.6c0-1.6 1.6-1.6 1.6-3.2 3.2-8 8-17.6 11.2-25.6 8.1-22.5-17.5-43.4-38.4-32.1zm52.9-118.7c-3.2-19.2-22.4-28.8-40.1-19.2L664 519.1c-17.6 9.6-17.6 35.3 0 44.9l11.2 6.4c8 4.8 17.6 4.8 25.6 0l117-67.3c8-4.8 14.4-14.4 12.8-25.6 1.7-3.2.1-8.1.1-12.9zm0 0"/></svg>