<svg class="icon" viewBox="0 0 1107 1024" xmlns="http://www.w3.org/2000/svg" width="138.375" height="128"><defs><style/></defs><path d="M229.748 1023.907V342.76c0-27.16-20.875-48.058-45.94-48.058H45.964c-25.042 0-45.94 22.97-45.94 48.058v681.146h229.724zm292.376 0V50.246c0-27.183-20.876-50.153-45.94-50.153H338.338c-25.065 0-45.94 22.97-45.94 50.153v973.66h229.725zm292.375 0v-430.43c0-27.158-20.876-50.129-45.94-50.129H630.737c-25.064 0-45.963 22.97-45.963 50.13v430.429h229.725zm292.375 0V342.76c0-27.16-20.875-48.058-45.94-48.058H923.089c-25.041 0-45.94 22.97-45.94 48.058v681.146h229.725z"/></svg>